<?xml version="1.0" encoding="UTF-8"?>
<svg id="Capa_6" xmlns="http://www.w3.org/2000/svg" viewBox="0 0 125.87 132.37">
  <defs>
    <style>
      .cls-1 {
        fill: #fff;
      }
    </style>
  </defs>
  <path class="cls-1" d="M20.94-.46l6,14.17h94.09l4.85,7.91-22.98,45.96-8.55,5.87h-48.77l-6.26,12.26h74.04v14.55H31.15l-5.87-6.38-.77-9.96,10.34-20.94L12.89,14.35H0V-.46h20.94ZM33.32,27.24l13.91,32.43h47.11l17.11-32.43H33.32Z"/>
  <polygon class="cls-1" points="33.89 106.07 42.32 106.07 50.17 113.69 50.17 124.9 42.03 132.37 33.89 132.37 26.17 125.22 26.17 113.5 33.89 106.07"/>
  <polygon class="cls-1" points="96.19 106.07 104.62 106.07 112.47 113.69 112.47 124.9 104.33 132.37 96.19 132.37 88.47 125.22 88.47 113.5 96.19 106.07"/>
</svg>