<?xml version="1.0" encoding="UTF-8"?>
<svg id="Capa_5" xmlns="http://www.w3.org/2000/svg" viewBox="0 0 221.03 174.96">
  <defs>
    <style>
      .cls-1 {
        fill: #fff;
      }
    </style>
  </defs>
  <path class="cls-1" d="M53.7,66.74l8.13-12.37,5.87-5.42h10.78s7.23,5.28,7.23,5.28l12.94,17.07-3.45,69.51,3.06,6.13s8.55.51,8.94.51,5.49-5.36,5.49-5.36l-.26-15.06-2.55-.77v-9.7l6.89-4.6h28.98l4.85,2.55.64,6.77-4.43,4.3v25.7l-18.38,23.66h-41.36l-13.11-28.77,8.46-71.13-7.14-11.74h-6.26l-11.06,12.75-52.26-3.08,1.7-11.01,46.29,4.79ZM137.17,122.46l1.94-1.89-.28-2.97-2.13-1.12h-12.73l-3.03,2.02v4.26l1.12.34,15.11-.64ZM88.6,84.51v5.45l9.27-3.17.23-4.6-9.5,2.32ZM90.09,93.15v5.45l7.23-.54.23-4.61-7.46-.29ZM91.81,101.79v5.45l5.07-.53.23-4.61-5.3-.3Z"/>
  <path class="cls-1" d="M32.63,13.02l-13.32-5.54-4.94,1.35v2.77l20.88,13.77v16.76l-11.67,3.59h-10.4L.23,43.18l3.14-10.78,14.22,6.29,5.31-1.5v-2.39L2.03,21.03V4.04L13.55.45h9.65l12.8,1.35-3.37,11.22Z"/>
  <path class="cls-1" d="M96.98,24.84l-6.06,20.65h-14.89l-4.42-14.74-4.12,14.74h-14.82l-6.14-20.13-8.31-20.65L55.01,0l3.37,17.06,4.42,16.01,4.56-14.29-5.46-14.07L79.18,0l3.07,17.06,3.89,16.01,5.09-15.94L95.26,0l9.8,2.84-8.08,22Z"/>
  <path class="cls-1" d="M110.16,45.35l.6-22.22-.6-22.3h15.56l-.6,22.3.6,22.22h-15.56Z"/>
  <path class="cls-1" d="M165.98,45.35l-23.65-23.12,1.65,23.12h-10.78l.6-22.22-.6-22.3h9.95l21.33,21.25-1.72-21.25h10.78l-.67,22.3.67,22.22h-7.56Z"/>
  <path class="cls-1" d="M206.39,45.72h-10.4l-14.14-3.82-2.25-18.78,2.25-18.86,14.14-3.82h10.03l13.09,2.39-3.89,13.39-13.17-8.38-5.99.67-1.8,14.59,1.8,14.52,5.91.6,3.82-.67.15-6.36-.6-9.35h15.56l-.37,10.33.37,10.33-14.52,3.22Z"/>
  <path class="cls-1" d="M62.17,110.94l-21.6-13.85-11.33,1.38-3.16,30,3.16,29.85,11.2,1.23,22.53-11.39,3.95,19.54-21.08,7.23h-15.81l-25.82-7.85L.26,128.49l3.95-38.78,25.82-7.85h16.6l21.08,4.62-5.53,24.47Z"/>
  <path class="cls-1" d="M218.76,163.18l-17.5,11.76h-41.13l.91-63.19-.91-62.82h39.66l17.5,11.17,2.16,23.61-3.98,19.18-13.29,8.85,14.89,8.64,3.98,19.39-2.27,23.4ZM195.01,71.06l-4.21-2.32h-7.84l-.68,32.89h8.52l4.21-2.11,1.25-13.7-1.25-14.76ZM196.48,123.76l-4.2-2.11h-10l.68,32.89h9.32l4.2-2.32,1.25-14.76-1.25-13.7Z"/>
  <path class="cls-1" d="M136.94,107.42h-12.1l-13.3-4.86.42-24.48-.42-28.95h14.49l-.56,28.95-.07,18.85,5.49,1.26,5.49-1.26-.14-18.85-.49-28.95h14.56l-.42,28.95.42,24.48-13.37,4.86Z"/>
</svg>