<?xml version="1.0" encoding="UTF-8"?>
<svg id="Capa_7" xmlns="http://www.w3.org/2000/svg" viewBox="0 0 147.4 132.16">
  <defs>
    <style>
      .cls-1 {
        fill: #122db2;
      }
    </style>
  </defs>
  <polygon class="cls-1" points="109.11 20.65 109.11 47.56 86.55 66.2 59.32 66.2 37.02 48.93 37.02 20.65 50.47 5.18 64.09 -.01 83.74 -.01 94.81 5.44 109.11 20.65"/>
  <polygon points="94.09 26.74 94.09 38.33 80.96 51.51 65.1 51.51 52.12 39.13 52.12 26.74 59.95 15.99 67.88 12.96 79.32 12.96 85.77 16.13 94.09 26.74"/>
  <polygon class="cls-1" points="0 132.16 0 102.03 13.62 88.24 52.6 74.97 97.19 74.97 132.94 88.41 147.4 103.56 147.4 132.16 0 132.16"/>
  <polygon points="16.85 115.31 16.85 101.95 27.24 95.83 57 89.95 91.04 89.95 118.32 95.91 129.36 102.63 129.36 115.31 16.85 115.31"/>
</svg>