<?xml version="1.0" encoding="UTF-8"?>
<svg id="Capa_6" xmlns="http://www.w3.org/2000/svg" viewBox="0 0 125.87 132.37">
  <defs>
    <style>
      .cls-1 {
        fill: #122db2;
      }
    </style>
  </defs>
  <polygon class="cls-1" points="0 -.46 0 14.35 12.89 14.35 34.85 62.99 24.51 83.93 25.28 93.88 31.15 100.27 113.36 100.27 113.36 85.71 39.32 85.71 45.57 73.46 94.34 73.46 102.89 67.59 125.87 21.63 121.02 13.71 26.94 13.71 20.94 -.46 0 -.46"/>
  <polygon points="33.32 27.24 47.23 59.67 94.34 59.67 111.45 27.24 33.32 27.24"/>
  <polygon class="cls-1" points="33.89 106.07 42.32 106.07 50.17 113.69 50.17 124.9 42.03 132.37 33.89 132.37 26.17 125.22 26.17 113.5 33.89 106.07"/>
  <polygon class="cls-1" points="96.19 106.07 104.62 106.07 112.47 113.69 112.47 124.9 104.33 132.37 96.19 132.37 88.47 125.22 88.47 113.5 96.19 106.07"/>
</svg>