<?xml version="1.0" encoding="UTF-8"?>
<svg id="Capa_10" data-name="Capa 10" xmlns="http://www.w3.org/2000/svg" viewBox="0 0 1117.55 704.68">
  <defs>
    <style>
      .cls-1 {
        fill: #122db2;
      }

      .cls-1, .cls-2, .cls-3 {
        stroke-width: 0px;
      }

      .cls-2 {
        fill: #f9b420;
      }

      .cls-3 {
        fill: #e81e50;
      }
    </style>
  </defs>
  <polygon class="cls-1" points="899.04 267.4 888.61 240.78 741.9 298.3 760.34 358.26 899.04 267.4"/>
  <polygon class="cls-1" points="623.9 189.47 612.67 142.26 909.09 177.65 899.03 200.85 623.9 189.47"/>
  <path class="cls-2" d="M524.29,385.68l-201.05,99.22c25.94,24.53,50.85,50.42,74.62,77.52l163.4-93.57-36.97-83.16Z"/>
  <polygon class="cls-3" points="750.51 370.97 730.88 299.52 548.12 372.49 583.08 453.61 750.51 370.97"/>
  <polygon class="cls-2" points="611.18 190.14 599.99 144.82 353.37 162.17 378.77 249.33 611.18 190.14"/>
  <polygon class="cls-3" points="365.29 249.33 342.17 171.56 208.46 183.61 233.86 270.76 365.29 249.33"/>
  <polygon class="cls-3" points="893.19 228.43 758.15 269.36 758.15 219.35 893.19 210.2 893.19 228.43"/>
  <path class="cls-2" d="M741.64,221.59c-2.42-.67,1.21,50.23,0,52.24s-187.79,67.61-187.79,67.61l-.99-73.86,188.78-45.99Z"/>
  <path class="cls-1" d="M532.73,271.15c-2.42-.67,4.85,71.21,3.64,73.22s-231.61,71.71-231.61,71.71l-11.46-72.07,239.42-72.85Z"/>
</svg>