<?xml version="1.0" encoding="UTF-8"?>
<svg id="Capa_4" xmlns="http://www.w3.org/2000/svg" viewBox="0 0 2393.81 492.45">
  <defs>
    <style>
      .cls-1 {
        fill: #f9b420;
      }

      .cls-2 {
        fill: #122db2;
      }

      .cls-3 {
        fill: #e81e50;
      }
    </style>
  </defs>
  <polygon class="cls-3" points="539.03 3.26 573.29 3.26 579.08 173.47 595.1 173.47 598.21 478.15 542.15 478.15 539.03 3.26"/>
  <polygon class="cls-2" points="627.58 3.26 646.26 3.26 646.26 170.41 670.74 166.32 670.29 487.01 620.01 487.01 620.01 174.84 627.58 175.18 627.58 3.26"/>
  <polygon class="cls-1" points="702.33 3.26 717.01 3.26 717.01 170.24 747.71 164.62 743.71 492.45 688.31 492.45 694.32 163.09 702.33 162.58 702.33 3.26"/>
  <polygon class="cls-3" points="775.74 3.26 819.79 3.26 825.13 462.32 769.07 462.32 765.06 162.07 780.42 160.03 775.74 3.26"/>
  <polygon class="cls-3" points="2107.71 3.26 2141.97 3.26 2147.76 173.47 2163.78 173.47 2166.89 478.15 2110.83 478.15 2107.71 3.26"/>
  <polygon class="cls-2" points="2196.26 3.26 2214.94 3.26 2214.94 170.41 2239.42 166.32 2238.97 487.01 2188.69 487.01 2188.69 174.84 2196.26 175.18 2196.26 3.26"/>
  <polygon class="cls-1" points="2271.01 3.26 2285.69 3.26 2285.69 170.24 2316.39 164.62 2312.39 492.45 2256.99 492.45 2263 163.09 2271.01 162.58 2271.01 3.26"/>
  <polygon class="cls-3" points="2344.42 3.26 2388.47 3.26 2393.81 462.32 2337.75 462.32 2333.75 162.07 2349.1 160.03 2344.42 3.26"/>
  <polygon class="cls-1" points="1580.44 3.26 1614.7 3.26 1620.49 173.47 1636.51 173.47 1639.62 478.15 1583.56 478.15 1580.44 3.26"/>
  <polygon class="cls-3" points="1668.99 3.26 1687.67 3.26 1687.67 170.41 1712.15 166.32 1711.7 487.01 1661.42 487.01 1661.42 174.84 1668.99 175.18 1668.99 3.26"/>
  <polygon class="cls-2" points="1743.74 3.26 1758.42 3.26 1758.42 170.24 1789.12 164.62 1785.12 492.45 1729.72 492.45 1735.73 163.09 1743.74 162.58 1743.74 3.26"/>
  <polygon class="cls-1" points="1817.15 3.26 1861.2 3.26 1866.54 462.32 1810.48 462.32 1806.47 162.07 1821.83 160.03 1817.15 3.26"/>
  <polygon class="cls-1" points="2.51 3.26 36.77 3.26 42.56 173.47 58.57 173.47 61.69 478.15 5.63 478.15 2.51 3.26"/>
  <polygon class="cls-3" points="91.06 3.26 109.74 3.26 109.74 170.41 134.22 166.32 133.77 487.01 83.49 487.01 83.49 174.84 91.06 175.18 91.06 3.26"/>
  <polygon class="cls-2" points="165.81 3.26 180.49 3.26 180.49 170.24 211.19 164.62 207.19 492.45 151.79 492.45 157.8 163.09 165.81 162.58 165.81 3.26"/>
  <polygon class="cls-1" points="239.22 3.26 283.27 3.26 288.61 462.32 232.55 462.32 228.54 162.07 243.9 160.03 239.22 3.26"/>
  <polygon class="cls-2" points="831.81 3.26 863.84 3.26 863.84 172.79 889.2 176.88 893.88 482.75 837.81 482.75 831.81 3.26"/>
  <polygon class="cls-1" points="1354.92 3.26 1386.96 3.26 1386.96 172.79 1412.32 176.88 1416.99 482.75 1360.93 482.75 1354.92 3.26"/>
  <polygon class="cls-1" points="921.24 3.26 940.6 3.26 940.6 182.49 967.29 182.49 963.29 492.45 908.56 492.45 911.23 177.39 920.57 178.92 921.24 3.26"/>
  <polygon class="cls-3" points="997.99 3.26 1043.38 3.26 1052.72 466.92 989.32 466.92 983.98 181.98 1006.67 181.98 997.99 3.26"/>
  <polygon class="cls-3" points="1877.59 3.26 1909.63 3.26 1909.63 172.79 1934.99 176.88 1939.66 482.75 1883.6 482.75 1877.59 3.26"/>
  <polygon class="cls-2" points="1967.03 3.26 1986.38 3.26 1986.38 182.49 2013.08 182.49 2009.08 492.45 1954.35 492.45 1957.02 177.39 1966.36 178.92 1967.03 3.26"/>
  <polygon class="cls-1" points="2043.78 3.26 2089.17 3.26 2098.51 466.92 2035.1 466.92 2029.77 181.98 2052.46 181.98 2043.78 3.26"/>
  <polygon class="cls-3" points="1442.5 3.26 1461.85 3.26 1461.85 182.49 1488.55 182.49 1484.54 492.45 1429.81 492.45 1432.48 177.39 1441.83 178.92 1442.5 3.26"/>
  <polygon class="cls-2" points="1519.25 3.26 1564.63 3.26 1573.98 466.92 1510.57 466.92 1505.23 181.98 1527.92 181.98 1519.25 3.26"/>
  <polygon class="cls-3" points="303.78 3.26 335.82 3.26 335.82 172.79 361.18 176.88 365.85 482.75 309.79 482.75 303.78 3.26"/>
  <polygon class="cls-2" points="391.35 3.26 410.71 3.26 410.71 182.49 437.4 182.49 433.4 492.45 378.67 492.45 381.34 177.39 390.68 178.92 391.35 3.26"/>
  <polygon class="cls-1" points="468.11 3.26 513.49 3.26 522.83 466.92 459.43 466.92 454.09 181.98 476.78 181.98 468.11 3.26"/>
  <polygon class="cls-2" points="1076.08 3.26 1107.45 3.26 1102.11 192.2 1118.13 192.2 1112.79 487.01 1068.74 487.01 1076.08 3.26"/>
  <polygon class="cls-1" points="1165.52 3.26 1182.87 3.26 1182.87 189.13 1198.89 192.2 1194.22 478.15 1132.81 478.15 1138.82 194.75 1165.85 195.26 1165.52 3.26"/>
  <polygon class="cls-3" points="1239.6 7.35 1256.95 7.35 1256.95 189.64 1266.96 189.64 1266.96 487.01 1218.24 487.01 1215.57 192.71 1237.6 195.77 1239.6 7.35"/>
  <polygon class="cls-2" points="1311.68 7.35 1344.38 7.35 1348.39 448.03 1292.99 448.03 1292.99 188.62 1320.69 188.62 1311.68 7.35"/>
</svg>