<?xml version="1.0" encoding="UTF-8"?>
<svg xmlns="http://www.w3.org/2000/svg" version="1.1" viewBox="0 0 1302.45 498.67">
  <defs>
    <style>
      .cls-1 {
        fill: #f9b420;
      }

      .cls-2 {
        fill: #122db2;
      }

      .cls-3 {
        fill: #e81e50;
      }
    </style>
  </defs>
  <!-- Generator: Adobe Illustrator 28.7.1, SVG Export Plug-In . SVG Version: 1.2.0 Build 142)  -->
  <g>
    <g id="Capa_8">
      <polygon class="cls-1" points="102.55 498.67 173.03 498.67 180.48 147.44 99.11 147.44 102.55 498.67"/>
      <polygon class="cls-3" points="1122.4 498.67 1192.88 498.67 1200.33 190.69 1118.96 190.69 1122.4 498.67"/>
      <rect class="cls-3" x="202.83" y="147.44" width="71.06" height="351.23"/>
      <rect class="cls-2" x="921.4" y="147.44" width="71.06" height="351.23"/>
      <rect class="cls-1" x="1017.67" y="147.44" width="71.06" height="351.23"/>
      <polygon class="cls-2" points="295.66 208.85 299.1 498.67 371.3 498.67 376.46 208.85 295.66 208.85"/>
      <polygon class="cls-2" points="1221.21 208.85 1224.65 498.67 1296.85 498.67 1302 208.85 1221.21 208.85"/>
      <polygon class="cls-2" points="0 208.85 3.44 498.67 75.64 498.67 80.8 208.85 0 208.85"/>
      <polygon class="cls-1" points="425.59 47.46 407.97 47.46 407.97 7.96 414.06 0 470.15 0 477.34 9.41 477.34 47.46 457.25 47.46 457.25 146.5 479.03 146.5 479.03 498.67 407.97 498.67 407.97 147.44 425.16 147.44 425.59 47.46"/>
      <polygon class="cls-3" points="831.3 77.87 813.68 77.87 813.68 41.03 819.76 33.61 875.85 33.61 883.05 42.38 883.05 77.87 862.96 77.87 862.96 170.24 884.73 170.24 884.73 498.67 813.68 498.67 813.68 171.11 830.87 171.11 831.3 77.87"/>
      <polygon class="cls-3" points="508.16 498.67 580.74 498.67 579.67 185.35 560.18 185.35 559.82 139.39 577.88 139.39 577.37 100.63 570.28 90.43 516.7 90.43 508.16 98.95 508.16 140.04 528.09 139.48 527.09 185.54 506.61 185.82 508.16 498.67"/>
      <polygon class="cls-2" points="627.82 103.75 610.63 103.75 610.63 63.31 619.23 54.58 670.61 54.58 679.01 64.06 679.01 103.75 660.3 103.75 659.53 144.94 683.03 144.94 684.17 498.67 613.4 498.67 610.63 146.32 628.02 147.06 627.82 103.75"/>
      <polygon class="cls-1" points="727.53 130.39 710.34 130.39 710.34 92.68 718.94 84.53 770.32 84.53 778.72 93.38 778.72 130.39 760 130.39 759.24 168.8 782.73 168.8 783.88 498.67 713.11 498.67 710.34 170.08 727.72 170.78 727.53 130.39"/>
    </g>
  </g>
</svg>